<svg width="100" height="46.828" xmlns="http://www.w3.org/2000/svg">

 <g>
  <title>Layer 1</title>
  <g id="svg_1" transform="matrix(0.357143, 0, 0, 0.357143, 0.000008, -0.000001)">
   <g fill="#39e991" transform="matrix(1.640250513661404,0,0,1.640250513661404,66.66533946463458,-32.80501027322808)" featurekey="mugSzh-0" id="SvgjsG1271">
    <g id="svg_2" xmlns="http://www.w3.org/2000/svg">
     <path id="svg_3" d="m80.6,46.4c1.3,-3.9 0.6,-9.3 -2.8,-12.5c-2.3,-2.2 -5.5,-3.5 -8.8,-3.5c-1.9,0 -3.8,0.5 -5.5,1.3c-3.6,-6.7 -12.2,-11.7 -21,-11.7c-2.3,0 -4.5,0.3 -6.5,1c-9.5,3 -18.4,11.7 -18.1,23.1c-1,-0.2 -2.1,-0.3 -3.2,-0.3c-7.2,0 -13,4.9 -13.8,11.7c-0.4,3.3 0.6,6.3 2.8,8.7c3.3,3.6 9.2,5.8 16,5.8l57.1,0c6.7,0 12,-4.6 12.4,-10.8c0.3,-6.2 -4,-11.2 -8.6,-12.8zm5.3,12.6c-0.3,4.4 -4.2,7.8 -9.2,7.8l-57,0c-5.9,0 -11,-1.8 -13.6,-4.7c-1.6,-1.7 -2.2,-3.8 -2,-6.2c0.6,-5.1 5,-8.9 10.6,-8.9c1.5,0 3,0.3 4.4,0.8l2.5,1l-0.3,-2.8c-1.5,-10.7 6.7,-19.2 15.7,-22c1.8,-0.6 3.7,-0.8 5.6,-0.8c8.1,0 16.4,5 18.9,11.4l0.8,2l1.7,-1.2c1.6,-1.1 3.3,-1.7 5.2,-1.7c2.4,0 4.9,1 6.6,2.6c2.8,2.7 3,7.8 1.4,10.5l-1.3,2.2l2.5,0.3c3.7,0.3 7.8,4.6 7.5,9.7z"/>
     <path id="svg_4" d="m37.9,49.6c-0.2,-0.5 -0.4,-0.9 -0.5,-1.4c-0.1,-0.3 -0.4,-0.5 -0.7,-0.4c-0.3,0.1 -0.5,0.4 -0.4,0.7c0.1,0.5 0.3,1.1 0.6,1.6c0.3,0.7 0.6,2.5 0.4,3.2c-0.1,0.6 -0.4,1.3 -1.6,2.8c-0.2,0.2 -0.2,0.6 0.1,0.8c0.1,0.1 0.2,0.1 0.4,0.1c0.2,0 0.3,-0.1 0.5,-0.2c1.2,-1.5 1.6,-2.4 1.8,-3.3c0.1,-1 -0.2,-3 -0.6,-3.9z"/>
     <path id="svg_5" d="m36,46.1c0,0.4 0,0.7 0.1,1.1c0,0.3 0.3,0.5 0.6,0.5c0,0 0,0 0.1,0c0.3,0 0.6,-0.3 0.5,-0.7c0,-0.3 -0.1,-0.6 -0.1,-1c0,-2.3 1,-4.6 2.6,-6.2c0.2,-0.2 0.2,-0.6 0,-0.8c-0.2,-0.2 -0.6,-0.2 -0.8,0c-2,1.9 -3,4.4 -3,7.1z"/>
     <path id="svg_6" d="m52.4,40.3c0.6,0.7 1.1,1.4 1.4,2.2c0.7,1.5 1.2,3.3 1.6,5.2c0.1,0.3 0.3,0.5 0.6,0.5c0,0 0.1,0 0.1,0c0.3,-0.1 0.5,-0.4 0.5,-0.7c-0.5,-2.5 -1.2,-4.4 -1.7,-5.5c-0.4,-0.9 -0.9,-1.8 -1.6,-2.5c-0.2,-0.2 -0.6,-0.3 -0.8,-0.1c-0.3,0.3 -0.3,0.7 -0.1,0.9z"/>
     <path id="svg_7" d="m41.8,37c-0.7,0.3 -1.3,0.7 -1.9,1.1c-0.3,0.2 -0.3,0.6 -0.1,0.8c0.2,0.3 0.6,0.3 0.8,0.1c0.5,-0.4 1.1,-0.7 1.7,-1c3.1,-1.4 6.7,-0.8 9.3,1.4c0.1,0.1 0.2,0.1 0.4,0.1c0.2,0 0.3,-0.1 0.4,-0.2c0.2,-0.2 0.2,-0.6 -0.1,-0.8c-2.8,-2.4 -7,-3 -10.5,-1.5z"/>
     <path id="svg_8" d="m56.1,48.3c-0.3,0 -0.5,0.3 -0.5,0.7c0.4,3 0.3,5.9 -0.3,8.5c-0.1,0.3 0.1,0.6 0.4,0.7c0,0 0.1,0 0.1,0c0.3,0 0.5,-0.2 0.6,-0.5c0.6,-2.7 0.7,-5.8 0.3,-8.9c0,-0.3 -0.3,-0.5 -0.6,-0.5z"/>
     <path id="svg_9" d="m52,48.5c-0.1,-0.3 -0.4,-0.5 -0.7,-0.5c-0.3,0.1 -0.5,0.4 -0.5,0.7c0.2,1.3 0.4,2.6 0.4,3.9c0,1.3 -0.1,2.6 -0.4,3.8c-0.4,1.7 -1,3.3 -1.9,4.9c-0.2,0.3 -0.1,0.6 0.2,0.8c0.1,0.1 0.2,0.1 0.3,0.1c0.2,0 0.4,-0.1 0.5,-0.3c0.9,-1.6 1.6,-3.4 2,-5.2c0.3,-1.3 0.4,-2.6 0.4,-4c0.1,-1.4 0,-2.8 -0.3,-4.2z"/>
     <path id="svg_10" d="m43.1,52.6c0,-1.7 -0.4,-3.6 -0.9,-4.9c-0.2,-0.5 -0.3,-1.1 -0.3,-1.6c0,-0.6 0.1,-1.3 0.4,-1.8c0.1,-0.3 0,-0.6 -0.3,-0.8c-0.3,-0.1 -0.6,0 -0.8,0.3c-0.4,0.7 -0.5,1.5 -0.5,2.3c0,0.7 0.2,1.4 0.5,2.1c0.5,1.2 0.8,2.9 0.8,4.4c0,0.6 -0.1,1.2 -0.2,1.7c-0.4,1.6 -1.1,3.1 -3.3,5.5c-0.2,0.2 -0.2,0.6 0,0.8c0.1,0.1 0.3,0.2 0.4,0.2c0.2,0 0.3,-0.1 0.4,-0.2c2.4,-2.6 3.1,-4.3 3.5,-6.1c0.2,-0.5 0.3,-1.1 0.3,-1.9z"/>
     <path id="svg_11" d="m51.1,47.5c0,0 0.1,0 0.1,0c0.3,-0.1 0.5,-0.4 0.4,-0.7c-0.3,-1 -0.6,-2 -1,-2.8c-0.8,-1.9 -2.7,-3.1 -4.8,-3.1c-0.7,0 -1.4,0.2 -2.1,0.5c-0.5,0.2 -1,0.5 -1.4,0.9c-0.2,0.2 -0.3,0.6 0,0.8c0.2,0.2 0.6,0.3 0.8,0c0.3,-0.3 0.7,-0.5 1.1,-0.7c0.5,-0.2 1.1,-0.4 1.6,-0.4c1.6,0 3.1,0.9 3.7,2.4c0.3,0.8 0.7,1.7 0.9,2.7c0.2,0.2 0.4,0.4 0.7,0.4z"/>
     <path id="svg_12" d="m47.7,52.6c0,-2.3 -0.5,-4.9 -1.3,-6.8c-0.1,-0.3 -0.5,-0.4 -0.8,-0.3c-0.3,0.1 -0.4,0.5 -0.3,0.8c0.8,1.7 1.2,4.1 1.2,6.3c0,1 -0.1,1.9 -0.3,2.8c-0.5,2.2 -1.4,4.1 -3.1,6.1c-0.2,0.3 -0.2,0.6 0.1,0.8c0.1,0.1 0.2,0.1 0.4,0.1c0.2,0 0.3,-0.1 0.5,-0.2c1.7,-2.2 2.7,-4.2 3.3,-6.6c0.2,-0.9 0.3,-1.9 0.3,-3z"/>
     <path id="svg_13" d="m51.9,41.5c-1.4,-1.9 -3.7,-3 -6,-3c-1.1,0 -2.1,0.2 -3.1,0.7c-0.8,0.4 -1.5,0.8 -2.1,1.4c-0.2,0.2 -0.2,0.6 0,0.8c0.2,0.2 0.6,0.2 0.8,0c0.5,-0.5 1.1,-0.9 1.8,-1.2c0.8,-0.4 1.7,-0.6 2.6,-0.6c2,0 3.9,0.9 5.1,2.5c0.1,0.2 0.3,0.2 0.5,0.2c0.1,0 0.3,0 0.4,-0.1c0.1,-0.1 0.2,-0.5 0,-0.7z"/>
     <path id="svg_14" d="m52,42.8c-0.3,0.1 -0.4,0.5 -0.3,0.8c1.1,2.6 1.8,6 1.8,9.1c0,1.5 -0.2,3 -0.5,4.3c-0.3,1.1 -0.6,2.2 -1,3.3c-0.1,0.3 0,0.6 0.3,0.8c0.1,0 0.1,0 0.2,0c0.2,0 0.5,-0.1 0.5,-0.4c0.5,-1.1 0.8,-2.3 1.1,-3.4c0.3,-1.4 0.5,-3 0.5,-4.6c0,-3.2 -0.7,-6.8 -1.9,-9.5c0,-0.4 -0.4,-0.5 -0.7,-0.4z"/>
     <path id="svg_15" d="m40.8,52.6c0,-1.4 -0.3,-3 -0.7,-4c-0.4,-0.8 -0.6,-1.7 -0.6,-2.6c0,-1.2 0.3,-2.4 1,-3.4c0.2,-0.3 0.1,-0.6 -0.2,-0.8c-0.3,-0.2 -0.6,-0.1 -0.8,0.2c-0.8,1.2 -1.2,2.6 -1.2,4c0,1.1 0.2,2.1 0.7,3.1c0.4,0.9 0.6,2.3 0.6,3.5c0,0.5 0,0.9 -0.1,1.2c-0.3,1.2 -0.8,2.4 -2.7,4.4c-0.2,0.2 -0.2,0.6 0,0.8c0.1,0.1 0.3,0.2 0.4,0.2c0.2,0 0.3,-0.1 0.4,-0.2c2,-2.2 2.6,-3.6 2.9,-5c0.2,-0.3 0.3,-0.8 0.3,-1.4z"/>
     <path id="svg_16" d="m43.3,58.3c-0.3,-0.2 -0.6,-0.1 -0.8,0.2c-0.5,0.8 -1.1,1.6 -1.9,2.5c-0.2,0.2 -0.2,0.6 0.1,0.8c0.1,0.1 0.3,0.1 0.4,0.1c0.2,0 0.3,-0.1 0.4,-0.2c0.8,-0.9 1.5,-1.8 2,-2.6c0.2,-0.2 0.1,-0.6 -0.2,-0.8z"/>
     <path id="svg_17" d="m43.2,57.2c-0.1,0.3 0,0.6 0.3,0.8c0.1,0 0.2,0.1 0.2,0.1c0.2,0 0.4,-0.1 0.5,-0.3c0.4,-0.8 0.7,-1.7 0.9,-2.6c0.2,-0.7 0.3,-1.6 0.3,-2.5c0,-1.9 -0.4,-4.1 -1.1,-5.7c-0.1,-0.3 -0.5,-0.4 -0.8,-0.3c-0.3,0.1 -0.4,0.5 -0.3,0.8c0.6,1.4 1,3.5 1,5.3c0,0.8 -0.1,1.6 -0.2,2.2c-0.2,0.7 -0.4,1.5 -0.8,2.2z"/>
     <path id="svg_18" d="m48.2,57.3c-0.1,0.3 0.1,0.6 0.4,0.7c0.1,0 0.1,0 0.2,0c0.2,0 0.5,-0.2 0.6,-0.4c0.2,-0.5 0.3,-1 0.4,-1.4c0.3,-1.1 0.4,-2.3 0.4,-3.6c0,-2.4 -0.5,-4.5 -0.8,-5.7c-0.1,-0.3 -0.4,-0.5 -0.7,-0.4c-0.3,0.1 -0.5,0.4 -0.4,0.7c0.5,1.7 0.8,3.6 0.8,5.4c0,1.2 -0.1,2.3 -0.4,3.3c-0.3,0.5 -0.4,0.9 -0.5,1.4z"/>
     <path id="svg_19" d="m47.5,45.4c0.1,0.1 0.1,0.3 0.2,0.4c0.1,0.3 0.5,0.4 0.8,0.3c0.3,-0.1 0.4,-0.5 0.3,-0.8c-0.1,-0.1 -0.1,-0.3 -0.2,-0.4c-0.6,-1.4 -2.4,-2.1 -3.8,-1.5c-0.9,0.4 -1.5,1.2 -1.7,2.1c-0.1,0.3 0.1,0.6 0.5,0.7c0,0 0.1,0 0.1,0c0.3,0 0.5,-0.2 0.6,-0.5c0.1,-0.6 0.5,-1 1,-1.3c0.7,-0.3 1.8,0.1 2.2,1z"/>
     <path id="svg_20" d="m48.4,58.4c-0.3,-0.1 -0.6,0 -0.8,0.3c-0.4,0.9 -0.9,1.8 -1.5,2.7c-0.2,0.3 -0.1,0.6 0.2,0.8c0.1,0.1 0.2,0.1 0.3,0.1c0.2,0 0.4,-0.1 0.5,-0.3c0.6,-1 1.2,-1.9 1.6,-2.9c0.2,-0.2 0,-0.6 -0.3,-0.7z"/>
     <path id="svg_21" d="m40.1,36.5c0.1,0 0.2,0 0.3,-0.1c0.3,-0.2 0.7,-0.4 1,-0.5c3.1,-1.4 6.7,-1.2 9.6,0.3c0.3,0.2 0.6,0 0.8,-0.2c0.2,-0.3 0,-0.6 -0.2,-0.8c-3.3,-1.7 -7.3,-1.9 -10.7,-0.4c-0.4,0.2 -0.8,0.4 -1.1,0.6c-0.3,0.2 -0.4,0.5 -0.2,0.8c0.1,0.2 0.3,0.3 0.5,0.3z"/>
     <path id="svg_22" d="m57,41.1c-0.9,-1.9 -2.2,-3.6 -3.9,-4.9c-0.3,-0.2 -0.6,-0.1 -0.8,0.1c-0.2,0.3 -0.1,0.6 0.1,0.8c1.5,1.1 2.8,2.7 3.5,4.4c0.6,1.3 1,2.7 1.4,4.2c0.1,0.3 0.3,0.4 0.6,0.4c0,0 0.1,0 0.1,0c0.3,-0.1 0.5,-0.4 0.4,-0.7c-0.3,-1.4 -0.8,-3 -1.4,-4.3z"/>
     <path id="svg_23" d="m36.1,53c0,-0.1 0,-0.2 0,-0.4c0,-0.6 -0.1,-1.6 -0.4,-2.1c-0.6,-1.4 -1,-2.9 -1,-4.5c0,-3.4 1.6,-6.6 4.2,-8.7c0.3,-0.2 0.3,-0.6 0.1,-0.8c-0.2,-0.3 -0.6,-0.3 -0.8,-0.1c-2.9,2.3 -4.7,5.9 -4.7,9.6c0,1.7 0.4,3.4 1,4.9c0.1,0.3 0.3,1.2 0.3,1.7c0,0.1 0,0.1 0,0.2c-0.1,0.3 0.2,0.6 0.5,0.7c0,0 0.1,0 0.1,0c0.4,0 0.6,-0.2 0.7,-0.5z"/>
    </g>
   </g>
   <g fill="#ffffff" transform="matrix(1.895735028020081,0,0,1.895735028020081,-1.7061635139232607,92.6729835175081)" featurekey="PPkF4s-0" id="SvgjsG1272">
    <path id="svg_24" d="m4.86,16.87q1.42,0.57 2.6,0.57q1.24,0 1.97,-0.48t0.73,-1.14q0,-0.54 -0.43,-0.88t-1.09,-0.51t-1.74,-0.37q-1.44,-0.24 -2.64,-0.62t-2.18,-1.32t-0.98,-2.54q0,-2.36 1.73,-3.39t4.07,-1.03q1.8,0 3.13,0.49t2.65,1.47l-1.76,2.4q-0.98,-0.7 -2.04,-1.1t-2.1,-0.4q-0.92,0 -1.72,0.33t-0.8,1.11q0,0.48 0.41,0.77t0.9,0.42t1.59,0.37l0.72,0.14q1.66,0.32 2.75,0.71t1.89,1.31t0.8,2.56q0,2.22 -1.57,3.38t-4.25,1.16q-3.92,0 -6.6,-2.28l1.68,-2.42q0.86,0.72 2.28,1.29zm27.07,-6.83q1.13,1.24 1.13,3.46l0,6.5l-3.02,0l0,-6.5q0,-1.18 -0.59,-1.7t-1.55,-0.52q-0.8,0 -1.44,0.6t-0.66,2l0,6.12l-3.02,0l0,-6.5q0,-1.18 -0.59,-1.7t-1.53,-0.52q-0.86,0 -1.49,0.64t-0.63,2.26l-0.02,5.82l-2.98,0l0,-11l2.98,0l0,1q0.58,-0.52 1.4,-0.86t1.5,-0.34q2.32,0 3.54,1.5q0.62,-0.7 1.54,-1.1t2,-0.4q2.3,0 3.43,1.24zm12.57,8.86q-0.38,0.52 -1.31,0.93t-2.03,0.41q-1.7,0 -2.95,-0.76t-1.91,-2.07t-0.66,-2.91t0.66,-2.91t1.91,-2.07t2.95,-0.76q1.14,0 2.01,0.39t1.33,0.99l0,-1.14l2.96,0l0,11l-2.96,0l0,-1.1zm-0.7,-6.65q-0.82,-0.87 -2.2,-0.87q-1.4,0 -2.21,0.87t-0.81,2.25q0,1.34 0.83,2.22t2.19,0.88q1.4,0 2.21,-0.83t0.81,-2.27q0,-1.38 -0.82,-2.25zm11.86,-0.38q-0.86,0.21 -1.58,0.99t-0.72,2.28l0,4.86l-2.98,0l0,-11l2.98,0l0,1.46q0.74,-0.98 1.81,-1.33t1.95,-0.33l0,2.92q-0.6,-0.06 -1.46,0.15zm6.94,4.21q0,0.7 0.24,1.17t1.12,0.47q0.4,0 0.76,-0.04l0,2.52q-0.72,0.08 -1.34,0.08q-1.28,0 -2.07,-0.21t-1.23,-0.81t-0.44,-1.72l0,-6.1l-1.34,0l0,-2.62l1.34,0l0,-2.94l2.96,0l0,2.94l2.2,0l0,2.62l-2.2,0l0,4.64zm17.08,-11.16l8.02,15.08l-3.46,0l-1.16,-2.24l-6.82,0l-1.12,2.24l-3.48,0l8.02,-15.08zm1.88,10.14l-1.88,-3.82l-1.86,3.82l3.74,0zm9.4,4.45q-1.38,-0.77 -2.19,-2.09t-0.81,-2.88t0.81,-2.87t2.18,-2.08t2.99,-0.77q1.74,0 3.15,0.83t2.25,2.37l-2.7,1.06q-0.48,-0.82 -1.18,-1.23t-1.52,-0.41q-1.3,0 -2.15,0.88t-0.85,2.22t0.86,2.22t2.16,0.88q1.8,0 2.78,-1.6l2.54,1q-1.58,3.24 -5.32,3.24q-1.62,0 -3,-0.77zm13,0q-1.38,-0.77 -2.19,-2.09t-0.81,-2.88t0.81,-2.87t2.18,-2.08t2.99,-0.77q1.74,0 3.15,0.83t2.25,2.37l-2.7,1.06q-0.48,-0.82 -1.18,-1.23t-1.52,-0.41q-1.3,0 -2.15,0.88t-0.85,2.22t0.86,2.22t2.16,0.88q1.8,0 2.78,-1.6l2.54,1q-1.58,3.24 -5.32,3.24q-1.62,0 -3,-0.77zm13.33,0.23q-1.37,-0.54 -2.35,-1.83t-0.98,-3.37t0.99,-3.36t2.37,-1.82t2.62,-0.54q1.44,0 2.74,0.64t2.13,1.88t0.87,2.94q0,0.52 -0.02,0.9t-0.04,0.48l-8.68,0q0.24,1.16 1.2,1.58t1.8,0.42q1.08,0 1.72,-0.39t1.1,-0.89l2.32,1.34q-1.88,2.56 -5.14,2.56q-1.28,0 -2.65,-0.54zm0.61,-7.69q-0.78,0.61 -0.88,1.49l5.5,0q-0.06,-0.52 -0.4,-1t-0.91,-0.79t-1.29,-0.31q-1.24,0 -2.02,0.61zm9.58,6.49l1.56,-2.08q0.72,0.5 1.68,0.84t1.88,0.34q0.68,0 1.13,-0.28t0.45,-0.7t-0.51,-0.59t-0.99,-0.24t-0.62,-0.09q-1.2,-0.2 -2.07,-0.48t-1.58,-1t-0.71,-1.98q0,-2.08 1.51,-2.78t3.03,-0.7q1.3,0 2.4,0.38t2.18,1.2l-1.56,2.04q-0.78,-0.46 -1.54,-0.74t-1.58,-0.28q-0.5,0 -0.97,0.22t-0.47,0.6q0,0.48 0.65,0.68t1.43,0.3q1.4,0.24 2.24,0.5t1.49,0.97t0.65,2.01q0,1.72 -1.18,2.65t-3.34,0.93q-3,0 -5.16,-1.72zm11.44,0l1.56,-2.08q0.72,0.5 1.68,0.84t1.88,0.34q0.68,0 1.13,-0.28t0.45,-0.7t-0.51,-0.59t-0.99,-0.24t-0.62,-0.09q-1.2,-0.2 -2.07,-0.48t-1.58,-1t-0.71,-1.98q0,-2.08 1.51,-2.78t3.03,-0.7q1.3,0 2.4,0.38t2.18,1.2l-1.56,2.04q-0.78,-0.46 -1.54,-0.74t-1.58,-0.28q-0.5,0 -0.97,0.22t-0.47,0.6q0,0.48 0.65,0.68t1.43,0.3q1.4,0.24 2.24,0.5t1.49,0.97t0.65,2.01q0,1.72 -1.18,2.65t-3.34,0.93q-3,0 -5.16,-1.72z"/>
   </g>
  </g>
 </g>
</svg>