<svg width="98.5" height="56" xmlns="http://www.w3.org/2000/svg">

 <g>
  <title>Layer 1</title>
  <g fill="#39e991" transform="matrix(1.26503 0 0 1.26503 -97.2264 312.856)" featurekey="mugSzh-0" id="SvgjsG1271">
   <g id="svg_1" xmlns="http://www.w3.org/2000/svg">
    <path id="svg_2" d="m366.66665,-86.59051c1.3,-3.9 0.6,-9.3 -2.8,-12.5c-2.3,-2.2 -5.5,-3.5 -8.8,-3.5c-1.9,0 -3.8,0.5 -5.5,1.3c-3.6,-6.7 -12.2,-11.7 -21,-11.7c-2.3,0 -4.5,0.3 -6.5,1c-9.5,3 -18.4,11.7 -18.1,23.1c-1,-0.2 -2.1,-0.3 -3.2,-0.3c-7.2,0 -13,4.9 -13.8,11.7c-0.4,3.3 0.6,6.3 2.8,8.7c3.3,3.6 9.2,5.8 16,5.8l57.1,0c6.7,0 12,-4.6 12.4,-10.8c0.3,-6.2 -4,-11.2 -8.6,-12.8zm5.3,12.6c-0.3,4.4 -4.2,7.8 -9.2,7.8l-57,0c-5.9,0 -11,-1.8 -13.6,-4.7c-1.6,-1.7 -2.2,-3.8 -2,-6.2c0.6,-5.1 5,-8.9 10.6,-8.9c1.5,0 3,0.3 4.4,0.8l2.5,1l-0.3,-2.8c-1.5,-10.7 6.7,-19.2 15.7,-22c1.8,-0.6 3.7,-0.8 5.6,-0.8c8.1,0 16.4,5 18.9,11.4l0.8,2l1.7,-1.2c1.6,-1.1 3.3,-1.7 5.2,-1.7c2.4,0 4.9,1 6.6,2.6c2.8,2.7 3,7.8 1.4,10.5l-1.3,2.2l2.5,0.3c3.7,0.3 7.8,4.6 7.5,9.7z"/>
    <path id="svg_3" d="m323.96665,-83.39051c-0.2,-0.5 -0.4,-0.9 -0.5,-1.4c-0.1,-0.3 -0.4,-0.5 -0.7,-0.4c-0.3,0.1 -0.5,0.4 -0.4,0.7c0.1,0.5 0.3,1.1 0.6,1.6c0.3,0.7 0.6,2.5 0.4,3.2c-0.1,0.6 -0.4,1.3 -1.6,2.8c-0.2,0.2 -0.2,0.6 0.1,0.8c0.1,0.1 0.2,0.1 0.4,0.1c0.2,0 0.3,-0.1 0.5,-0.2c1.2,-1.5 1.6,-2.4 1.8,-3.3c0.1,-1 -0.2,-3 -0.6,-3.9z"/>
    <path id="svg_4" d="m322.06665,-86.89051c0,0.4 0,0.7 0.1,1.1c0,0.3 0.3,0.5 0.6,0.5c0,0 0,0 0.1,0c0.3,0 0.6,-0.3 0.5,-0.7c0,-0.3 -0.1,-0.6 -0.1,-1c0,-2.3 1,-4.6 2.6,-6.2c0.2,-0.2 0.2,-0.6 0,-0.8c-0.2,-0.2 -0.6,-0.2 -0.8,0c-2,1.9 -3,4.4 -3,7.1z"/>
    <path id="svg_5" d="m338.46665,-92.69051c0.6,0.7 1.1,1.4 1.4,2.2c0.7,1.5 1.2,3.3 1.6,5.2c0.1,0.3 0.3,0.5 0.6,0.5c0,0 0.1,0 0.1,0c0.3,-0.1 0.5,-0.4 0.5,-0.7c-0.5,-2.5 -1.2,-4.4 -1.7,-5.5c-0.4,-0.9 -0.9,-1.8 -1.6,-2.5c-0.2,-0.2 -0.6,-0.3 -0.8,-0.1c-0.3,0.3 -0.3,0.7 -0.1,0.9z"/>
    <path id="svg_6" d="m327.86665,-95.99051c-0.7,0.3 -1.3,0.7 -1.9,1.1c-0.3,0.2 -0.3,0.6 -0.1,0.8c0.2,0.3 0.6,0.3 0.8,0.1c0.5,-0.4 1.1,-0.7 1.7,-1c3.1,-1.4 6.7,-0.8 9.3,1.4c0.1,0.1 0.2,0.1 0.4,0.1c0.2,0 0.3,-0.1 0.4,-0.2c0.2,-0.2 0.2,-0.6 -0.1,-0.8c-2.8,-2.4 -7,-3 -10.5,-1.5z"/>
    <path id="svg_7" d="m342.16665,-84.69051c-0.3,0 -0.5,0.3 -0.5,0.7c0.4,3 0.3,5.9 -0.3,8.5c-0.1,0.3 0.1,0.6 0.4,0.7c0,0 0.1,0 0.1,0c0.3,0 0.5,-0.2 0.6,-0.5c0.6,-2.7 0.7,-5.8 0.3,-8.9c0,-0.3 -0.3,-0.5 -0.6,-0.5z"/>
    <path id="svg_8" d="m338.06665,-84.49051c-0.1,-0.3 -0.4,-0.5 -0.7,-0.5c-0.3,0.1 -0.5,0.4 -0.5,0.7c0.2,1.3 0.4,2.6 0.4,3.9c0,1.3 -0.1,2.6 -0.4,3.8c-0.4,1.7 -1,3.3 -1.9,4.9c-0.2,0.3 -0.1,0.6 0.2,0.8c0.1,0.1 0.2,0.1 0.3,0.1c0.2,0 0.4,-0.1 0.5,-0.3c0.9,-1.6 1.6,-3.4 2,-5.2c0.3,-1.3 0.4,-2.6 0.4,-4c0.1,-1.4 0,-2.8 -0.3,-4.2z"/>
    <path id="svg_9" d="m329.16665,-80.39051c0,-1.7 -0.4,-3.6 -0.9,-4.9c-0.2,-0.5 -0.3,-1.1 -0.3,-1.6c0,-0.6 0.1,-1.3 0.4,-1.8c0.1,-0.3 0,-0.6 -0.3,-0.8c-0.3,-0.1 -0.6,0 -0.8,0.3c-0.4,0.7 -0.5,1.5 -0.5,2.3c0,0.7 0.2,1.4 0.5,2.1c0.5,1.2 0.8,2.9 0.8,4.4c0,0.6 -0.1,1.2 -0.2,1.7c-0.4,1.6 -1.1,3.1 -3.3,5.5c-0.2,0.2 -0.2,0.6 0,0.8c0.1,0.1 0.3,0.2 0.4,0.2c0.2,0 0.3,-0.1 0.4,-0.2c2.4,-2.6 3.1,-4.3 3.5,-6.1c0.2,-0.5 0.3,-1.1 0.3,-1.9z"/>
    <path id="svg_10" d="m337.16665,-85.49051c0,0 0.1,0 0.1,0c0.3,-0.1 0.5,-0.4 0.4,-0.7c-0.3,-1 -0.6,-2 -1,-2.8c-0.8,-1.9 -2.7,-3.1 -4.8,-3.1c-0.7,0 -1.4,0.2 -2.1,0.5c-0.5,0.2 -1,0.5 -1.4,0.9c-0.2,0.2 -0.3,0.6 0,0.8c0.2,0.2 0.6,0.3 0.8,0c0.3,-0.3 0.7,-0.5 1.1,-0.7c0.5,-0.2 1.1,-0.4 1.6,-0.4c1.6,0 3.1,0.9 3.7,2.4c0.3,0.8 0.7,1.7 0.9,2.7c0.2,0.2 0.4,0.4 0.7,0.4z"/>
    <path id="svg_11" d="m333.76665,-80.39051c0,-2.3 -0.5,-4.9 -1.3,-6.8c-0.1,-0.3 -0.5,-0.4 -0.8,-0.3c-0.3,0.1 -0.4,0.5 -0.3,0.8c0.8,1.7 1.2,4.1 1.2,6.3c0,1 -0.1,1.9 -0.3,2.8c-0.5,2.2 -1.4,4.1 -3.1,6.1c-0.2,0.3 -0.2,0.6 0.1,0.8c0.1,0.1 0.2,0.1 0.4,0.1c0.2,0 0.3,-0.1 0.5,-0.2c1.7,-2.2 2.7,-4.2 3.3,-6.6c0.2,-0.9 0.3,-1.9 0.3,-3z"/>
    <path id="svg_12" d="m337.96665,-91.49051c-1.4,-1.9 -3.7,-3 -6,-3c-1.1,0 -2.1,0.2 -3.1,0.7c-0.8,0.4 -1.5,0.8 -2.1,1.4c-0.2,0.2 -0.2,0.6 0,0.8c0.2,0.2 0.6,0.2 0.8,0c0.5,-0.5 1.1,-0.9 1.8,-1.2c0.8,-0.4 1.7,-0.6 2.6,-0.6c2,0 3.9,0.9 5.1,2.5c0.1,0.2 0.3,0.2 0.5,0.2c0.1,0 0.3,0 0.4,-0.1c0.1,-0.1 0.2,-0.5 0,-0.7z"/>
    <path id="svg_13" d="m338.06665,-90.19051c-0.3,0.1 -0.4,0.5 -0.3,0.8c1.1,2.6 1.8,6 1.8,9.1c0,1.5 -0.2,3 -0.5,4.3c-0.3,1.1 -0.6,2.2 -1,3.3c-0.1,0.3 0,0.6 0.3,0.8c0.1,0 0.1,0 0.2,0c0.2,0 0.5,-0.1 0.5,-0.4c0.5,-1.1 0.8,-2.3 1.1,-3.4c0.3,-1.4 0.5,-3 0.5,-4.6c0,-3.2 -0.7,-6.8 -1.9,-9.5c0,-0.4 -0.4,-0.5 -0.7,-0.4z"/>
    <path id="svg_14" d="m326.86665,-80.39051c0,-1.4 -0.3,-3 -0.7,-4c-0.4,-0.8 -0.6,-1.7 -0.6,-2.6c0,-1.2 0.3,-2.4 1,-3.4c0.2,-0.3 0.1,-0.6 -0.2,-0.8c-0.3,-0.2 -0.6,-0.1 -0.8,0.2c-0.8,1.2 -1.2,2.6 -1.2,4c0,1.1 0.2,2.1 0.7,3.1c0.4,0.9 0.6,2.3 0.6,3.5c0,0.5 0,0.9 -0.1,1.2c-0.3,1.2 -0.8,2.4 -2.7,4.4c-0.2,0.2 -0.2,0.6 0,0.8c0.1,0.1 0.3,0.2 0.4,0.2c0.2,0 0.3,-0.1 0.4,-0.2c2,-2.2 2.6,-3.6 2.9,-5c0.2,-0.3 0.3,-0.8 0.3,-1.4z"/>
    <path id="svg_15" d="m329.36665,-74.69051c-0.3,-0.2 -0.6,-0.1 -0.8,0.2c-0.5,0.8 -1.1,1.6 -1.9,2.5c-0.2,0.2 -0.2,0.6 0.1,0.8c0.1,0.1 0.3,0.1 0.4,0.1c0.2,0 0.3,-0.1 0.4,-0.2c0.8,-0.9 1.5,-1.8 2,-2.6c0.2,-0.2 0.1,-0.6 -0.2,-0.8z"/>
    <path id="svg_16" d="m329.26665,-75.79051c-0.1,0.3 0,0.6 0.3,0.8c0.1,0 0.2,0.1 0.2,0.1c0.2,0 0.4,-0.1 0.5,-0.3c0.4,-0.8 0.7,-1.7 0.9,-2.6c0.2,-0.7 0.3,-1.6 0.3,-2.5c0,-1.9 -0.4,-4.1 -1.1,-5.7c-0.1,-0.3 -0.5,-0.4 -0.8,-0.3c-0.3,0.1 -0.4,0.5 -0.3,0.8c0.6,1.4 1,3.5 1,5.3c0,0.8 -0.1,1.6 -0.2,2.2c-0.2,0.7 -0.4,1.5 -0.8,2.2z"/>
    <path id="svg_17" d="m334.26665,-75.69051c-0.1,0.3 0.1,0.6 0.4,0.7c0.1,0 0.1,0 0.2,0c0.2,0 0.5,-0.2 0.6,-0.4c0.2,-0.5 0.3,-1 0.4,-1.4c0.3,-1.1 0.4,-2.3 0.4,-3.6c0,-2.4 -0.5,-4.5 -0.8,-5.7c-0.1,-0.3 -0.4,-0.5 -0.7,-0.4c-0.3,0.1 -0.5,0.4 -0.4,0.7c0.5,1.7 0.8,3.6 0.8,5.4c0,1.2 -0.1,2.3 -0.4,3.3c-0.3,0.5 -0.4,0.9 -0.5,1.4z"/>
    <path id="svg_18" d="m333.56665,-87.59051c0.1,0.1 0.1,0.3 0.2,0.4c0.1,0.3 0.5,0.4 0.8,0.3c0.3,-0.1 0.4,-0.5 0.3,-0.8c-0.1,-0.1 -0.1,-0.3 -0.2,-0.4c-0.6,-1.4 -2.4,-2.1 -3.8,-1.5c-0.9,0.4 -1.5,1.2 -1.7,2.1c-0.1,0.3 0.1,0.6 0.5,0.7c0,0 0.1,0 0.1,0c0.3,0 0.5,-0.2 0.6,-0.5c0.1,-0.6 0.5,-1 1,-1.3c0.7,-0.3 1.8,0.1 2.2,1z"/>
    <path id="svg_19" d="m334.46665,-74.59051c-0.3,-0.1 -0.6,0 -0.8,0.3c-0.4,0.9 -0.9,1.8 -1.5,2.7c-0.2,0.3 -0.1,0.6 0.2,0.8c0.1,0.1 0.2,0.1 0.3,0.1c0.2,0 0.4,-0.1 0.5,-0.3c0.6,-1 1.2,-1.9 1.6,-2.9c0.2,-0.2 0,-0.6 -0.3,-0.7z"/>
    <path id="svg_20" d="m326.16665,-96.49051c0.1,0 0.2,0 0.3,-0.1c0.3,-0.2 0.7,-0.4 1,-0.5c3.1,-1.4 6.7,-1.2 9.6,0.3c0.3,0.2 0.6,0 0.8,-0.2c0.2,-0.3 0,-0.6 -0.2,-0.8c-3.3,-1.7 -7.3,-1.9 -10.7,-0.4c-0.4,0.2 -0.8,0.4 -1.1,0.6c-0.3,0.2 -0.4,0.5 -0.2,0.8c0.1,0.2 0.3,0.3 0.5,0.3z"/>
    <path id="svg_21" d="m343.06665,-91.89051c-0.9,-1.9 -2.2,-3.6 -3.9,-4.9c-0.3,-0.2 -0.6,-0.1 -0.8,0.1c-0.2,0.3 -0.1,0.6 0.1,0.8c1.5,1.1 2.8,2.7 3.5,4.4c0.6,1.3 1,2.7 1.4,4.2c0.1,0.3 0.3,0.4 0.6,0.4c0,0 0.1,0 0.1,0c0.3,-0.1 0.5,-0.4 0.4,-0.7c-0.3,-1.4 -0.8,-3 -1.4,-4.3z"/>
    <path id="svg_22" d="m322.16665,-79.99051c0,-0.1 0,-0.2 0,-0.4c0,-0.6 -0.1,-1.6 -0.4,-2.1c-0.6,-1.4 -1,-2.9 -1,-4.5c0,-3.4 1.6,-6.6 4.2,-8.7c0.3,-0.2 0.3,-0.6 0.1,-0.8c-0.2,-0.3 -0.6,-0.3 -0.8,-0.1c-2.9,2.3 -4.7,5.9 -4.7,9.6c0,1.7 0.4,3.4 1,4.9c0.1,0.3 0.3,1.2 0.3,1.7c0,0.1 0,0.1 0,0.2c-0.1,0.3 0.2,0.6 0.5,0.7c0,0 0.1,0 0.1,0c0.4,0 0.6,-0.2 0.7,-0.5z"/>
   </g>
  </g>
  <g stroke="null">
   <g stroke="null" fill="#39e991" transform="matrix(1.11366 0 0 1.11366 -339.218 253.621)" featurekey="mugSzh-0" id="svg_23">
    <g stroke="null" xmlns="http://www.w3.org/2000/svg">
     <path stroke="null" d="m384.38213,-201.33546c1.3,-3.9 0.6,-9.3 -2.8,-12.5c-2.3,-2.2 -5.5,-3.5 -8.8,-3.5c-1.9,0 -3.8,0.5 -5.5,1.3c-3.6,-6.7 -12.2,-11.7 -21,-11.7c-2.3,0 -4.5,0.3 -6.5,1c-9.5,3 -18.4,11.7 -18.1,23.1c-1,-0.2 -2.1,-0.3 -3.2,-0.3c-7.2,0 -13,4.9 -13.8,11.7c-0.4,3.3 0.6,6.3 2.8,8.7c3.3,3.6 9.2,5.8 16,5.8l57.1,0c6.7,0 12,-4.6 12.4,-10.8c0.3,-6.2 -4,-11.2 -8.6,-12.8zm5.3,12.6c-0.3,4.4 -4.2,7.8 -9.2,7.8l-57,0c-5.9,0 -11,-1.8 -13.6,-4.7c-1.6,-1.7 -2.2,-3.8 -2,-6.2c0.6,-5.1 5,-8.9 10.6,-8.9c1.5,0 3,0.3 4.4,0.8l2.5,1l-0.3,-2.8c-1.5,-10.7 6.7,-19.2 15.7,-22c1.8,-0.6 3.7,-0.8 5.6,-0.8c8.1,0 16.4,5 18.9,11.4l0.8,2l1.7,-1.2c1.6,-1.1 3.3,-1.7 5.2,-1.7c2.4,0 4.9,1 6.6,2.6c2.8,2.7 3,7.8 1.4,10.5l-1.3,2.2l2.5,0.3c3.7,0.3 7.8,4.6 7.5,9.7z"/>
     <path stroke="null" d="m341.68213,-198.13546c-0.2,-0.5 -0.4,-0.9 -0.5,-1.4c-0.1,-0.3 -0.4,-0.5 -0.7,-0.4c-0.3,0.1 -0.5,0.4 -0.4,0.7c0.1,0.5 0.3,1.1 0.6,1.6c0.3,0.7 0.6,2.5 0.4,3.2c-0.1,0.6 -0.4,1.3 -1.6,2.8c-0.2,0.2 -0.2,0.6 0.1,0.8c0.1,0.1 0.2,0.1 0.4,0.1c0.2,0 0.3,-0.1 0.5,-0.2c1.2,-1.5 1.6,-2.4 1.8,-3.3c0.1,-1 -0.2,-3 -0.6,-3.9z"/>
     <path stroke="null" d="m339.78213,-201.63546c0,0.4 0,0.7 0.1,1.1c0,0.3 0.3,0.5 0.6,0.5c0,0 0,0 0.1,0c0.3,0 0.6,-0.3 0.5,-0.7c0,-0.3 -0.1,-0.6 -0.1,-1c0,-2.3 1,-4.6 2.6,-6.2c0.2,-0.2 0.2,-0.6 0,-0.8c-0.2,-0.2 -0.6,-0.2 -0.8,0c-2,1.9 -3,4.4 -3,7.1z"/>
     <path stroke="null" d="m356.18213,-207.43546c0.6,0.7 1.1,1.4 1.4,2.2c0.7,1.5 1.2,3.3 1.6,5.2c0.1,0.3 0.3,0.5 0.6,0.5c0,0 0.1,0 0.1,0c0.3,-0.1 0.5,-0.4 0.5,-0.7c-0.5,-2.5 -1.2,-4.4 -1.7,-5.5c-0.4,-0.9 -0.9,-1.8 -1.6,-2.5c-0.2,-0.2 -0.6,-0.3 -0.8,-0.1c-0.3,0.3 -0.3,0.7 -0.1,0.9z"/>
     <path stroke="null" d="m345.58213,-210.73546c-0.7,0.3 -1.3,0.7 -1.9,1.1c-0.3,0.2 -0.3,0.6 -0.1,0.8c0.2,0.3 0.6,0.3 0.8,0.1c0.5,-0.4 1.1,-0.7 1.7,-1c3.1,-1.4 6.7,-0.8 9.3,1.4c0.1,0.1 0.2,0.1 0.4,0.1c0.2,0 0.3,-0.1 0.4,-0.2c0.2,-0.2 0.2,-0.6 -0.1,-0.8c-2.8,-2.4 -7,-3 -10.5,-1.5z"/>
     <path stroke="null" d="m359.88213,-199.43546c-0.3,0 -0.5,0.3 -0.5,0.7c0.4,3 0.3,5.9 -0.3,8.5c-0.1,0.3 0.1,0.6 0.4,0.7c0,0 0.1,0 0.1,0c0.3,0 0.5,-0.2 0.6,-0.5c0.6,-2.7 0.7,-5.8 0.3,-8.9c0,-0.3 -0.3,-0.5 -0.6,-0.5z"/>
     <path stroke="null" d="m355.78213,-199.23546c-0.1,-0.3 -0.4,-0.5 -0.7,-0.5c-0.3,0.1 -0.5,0.4 -0.5,0.7c0.2,1.3 0.4,2.6 0.4,3.9c0,1.3 -0.1,2.6 -0.4,3.8c-0.4,1.7 -1,3.3 -1.9,4.9c-0.2,0.3 -0.1,0.6 0.2,0.8c0.1,0.1 0.2,0.1 0.3,0.1c0.2,0 0.4,-0.1 0.5,-0.3c0.9,-1.6 1.6,-3.4 2,-5.2c0.3,-1.3 0.4,-2.6 0.4,-4c0.1,-1.4 0,-2.8 -0.3,-4.2z"/>
     <path stroke="null" d="m346.88213,-195.13546c0,-1.7 -0.4,-3.6 -0.9,-4.9c-0.2,-0.5 -0.3,-1.1 -0.3,-1.6c0,-0.6 0.1,-1.3 0.4,-1.8c0.1,-0.3 0,-0.6 -0.3,-0.8c-0.3,-0.1 -0.6,0 -0.8,0.3c-0.4,0.7 -0.5,1.5 -0.5,2.3c0,0.7 0.2,1.4 0.5,2.1c0.5,1.2 0.8,2.9 0.8,4.4c0,0.6 -0.1,1.2 -0.2,1.7c-0.4,1.6 -1.1,3.1 -3.3,5.5c-0.2,0.2 -0.2,0.6 0,0.8c0.1,0.1 0.3,0.2 0.4,0.2c0.2,0 0.3,-0.1 0.4,-0.2c2.4,-2.6 3.1,-4.3 3.5,-6.1c0.2,-0.5 0.3,-1.1 0.3,-1.9z"/>
     <path stroke="null" d="m354.88213,-200.23546c0,0 0.1,0 0.1,0c0.3,-0.1 0.5,-0.4 0.4,-0.7c-0.3,-1 -0.6,-2 -1,-2.8c-0.8,-1.9 -2.7,-3.1 -4.8,-3.1c-0.7,0 -1.4,0.2 -2.1,0.5c-0.5,0.2 -1,0.5 -1.4,0.9c-0.2,0.2 -0.3,0.6 0,0.8c0.2,0.2 0.6,0.3 0.8,0c0.3,-0.3 0.7,-0.5 1.1,-0.7c0.5,-0.2 1.1,-0.4 1.6,-0.4c1.6,0 3.1,0.9 3.7,2.4c0.3,0.8 0.7,1.7 0.9,2.7c0.2,0.2 0.4,0.4 0.7,0.4z"/>
     <path stroke="null" d="m351.48213,-195.13546c0,-2.3 -0.5,-4.9 -1.3,-6.8c-0.1,-0.3 -0.5,-0.4 -0.8,-0.3c-0.3,0.1 -0.4,0.5 -0.3,0.8c0.8,1.7 1.2,4.1 1.2,6.3c0,1 -0.1,1.9 -0.3,2.8c-0.5,2.2 -1.4,4.1 -3.1,6.1c-0.2,0.3 -0.2,0.6 0.1,0.8c0.1,0.1 0.2,0.1 0.4,0.1c0.2,0 0.3,-0.1 0.5,-0.2c1.7,-2.2 2.7,-4.2 3.3,-6.6c0.2,-0.9 0.3,-1.9 0.3,-3z"/>
     <path stroke="null" d="m355.68213,-206.23546c-1.4,-1.9 -3.7,-3 -6,-3c-1.1,0 -2.1,0.2 -3.1,0.7c-0.8,0.4 -1.5,0.8 -2.1,1.4c-0.2,0.2 -0.2,0.6 0,0.8c0.2,0.2 0.6,0.2 0.8,0c0.5,-0.5 1.1,-0.9 1.8,-1.2c0.8,-0.4 1.7,-0.6 2.6,-0.6c2,0 3.9,0.9 5.1,2.5c0.1,0.2 0.3,0.2 0.5,0.2c0.1,0 0.3,0 0.4,-0.1c0.1,-0.1 0.2,-0.5 0,-0.7z"/>
     <path stroke="null" d="m355.78213,-204.93546c-0.3,0.1 -0.4,0.5 -0.3,0.8c1.1,2.6 1.8,6 1.8,9.1c0,1.5 -0.2,3 -0.5,4.3c-0.3,1.1 -0.6,2.2 -1,3.3c-0.1,0.3 0,0.6 0.3,0.8c0.1,0 0.1,0 0.2,0c0.2,0 0.5,-0.1 0.5,-0.4c0.5,-1.1 0.8,-2.3 1.1,-3.4c0.3,-1.4 0.5,-3 0.5,-4.6c0,-3.2 -0.7,-6.8 -1.9,-9.5c0,-0.4 -0.4,-0.5 -0.7,-0.4z"/>
     <path stroke="null" d="m344.58213,-195.13546c0,-1.4 -0.3,-3 -0.7,-4c-0.4,-0.8 -0.6,-1.7 -0.6,-2.6c0,-1.2 0.3,-2.4 1,-3.4c0.2,-0.3 0.1,-0.6 -0.2,-0.8c-0.3,-0.2 -0.6,-0.1 -0.8,0.2c-0.8,1.2 -1.2,2.6 -1.2,4c0,1.1 0.2,2.1 0.7,3.1c0.4,0.9 0.6,2.3 0.6,3.5c0,0.5 0,0.9 -0.1,1.2c-0.3,1.2 -0.8,2.4 -2.7,4.4c-0.2,0.2 -0.2,0.6 0,0.8c0.1,0.1 0.3,0.2 0.4,0.2c0.2,0 0.3,-0.1 0.4,-0.2c2,-2.2 2.6,-3.6 2.9,-5c0.2,-0.3 0.3,-0.8 0.3,-1.4z"/>
     <path stroke="null" d="m347.08213,-189.43546c-0.3,-0.2 -0.6,-0.1 -0.8,0.2c-0.5,0.8 -1.1,1.6 -1.9,2.5c-0.2,0.2 -0.2,0.6 0.1,0.8c0.1,0.1 0.3,0.1 0.4,0.1c0.2,0 0.3,-0.1 0.4,-0.2c0.8,-0.9 1.5,-1.8 2,-2.6c0.2,-0.2 0.1,-0.6 -0.2,-0.8z"/>
     <path stroke="null" d="m346.98213,-190.53546c-0.1,0.3 0,0.6 0.3,0.8c0.1,0 0.2,0.1 0.2,0.1c0.2,0 0.4,-0.1 0.5,-0.3c0.4,-0.8 0.7,-1.7 0.9,-2.6c0.2,-0.7 0.3,-1.6 0.3,-2.5c0,-1.9 -0.4,-4.1 -1.1,-5.7c-0.1,-0.3 -0.5,-0.4 -0.8,-0.3c-0.3,0.1 -0.4,0.5 -0.3,0.8c0.6,1.4 1,3.5 1,5.3c0,0.8 -0.1,1.6 -0.2,2.2c-0.2,0.7 -0.4,1.5 -0.8,2.2z"/>
     <path stroke="null" d="m351.98213,-190.43546c-0.1,0.3 0.1,0.6 0.4,0.7c0.1,0 0.1,0 0.2,0c0.2,0 0.5,-0.2 0.6,-0.4c0.2,-0.5 0.3,-1 0.4,-1.4c0.3,-1.1 0.4,-2.3 0.4,-3.6c0,-2.4 -0.5,-4.5 -0.8,-5.7c-0.1,-0.3 -0.4,-0.5 -0.7,-0.4c-0.3,0.1 -0.5,0.4 -0.4,0.7c0.5,1.7 0.8,3.6 0.8,5.4c0,1.2 -0.1,2.3 -0.4,3.3c-0.3,0.5 -0.4,0.9 -0.5,1.4z"/>
     <path stroke="null" d="m351.28213,-202.33546c0.1,0.1 0.1,0.3 0.2,0.4c0.1,0.3 0.5,0.4 0.8,0.3c0.3,-0.1 0.4,-0.5 0.3,-0.8c-0.1,-0.1 -0.1,-0.3 -0.2,-0.4c-0.6,-1.4 -2.4,-2.1 -3.8,-1.5c-0.9,0.4 -1.5,1.2 -1.7,2.1c-0.1,0.3 0.1,0.6 0.5,0.7c0,0 0.1,0 0.1,0c0.3,0 0.5,-0.2 0.6,-0.5c0.1,-0.6 0.5,-1 1,-1.3c0.7,-0.3 1.8,0.1 2.2,1z"/>
     <path stroke="null" d="m352.18213,-189.33546c-0.3,-0.1 -0.6,0 -0.8,0.3c-0.4,0.9 -0.9,1.8 -1.5,2.7c-0.2,0.3 -0.1,0.6 0.2,0.8c0.1,0.1 0.2,0.1 0.3,0.1c0.2,0 0.4,-0.1 0.5,-0.3c0.6,-1 1.2,-1.9 1.6,-2.9c0.2,-0.2 0,-0.6 -0.3,-0.7z"/>
     <path stroke="null" d="m343.88213,-211.23546c0.1,0 0.2,0 0.3,-0.1c0.3,-0.2 0.7,-0.4 1,-0.5c3.1,-1.4 6.7,-1.2 9.6,0.3c0.3,0.2 0.6,0 0.8,-0.2c0.2,-0.3 0,-0.6 -0.2,-0.8c-3.3,-1.7 -7.3,-1.9 -10.7,-0.4c-0.4,0.2 -0.8,0.4 -1.1,0.6c-0.3,0.2 -0.4,0.5 -0.2,0.8c0.1,0.2 0.3,0.3 0.5,0.3z"/>
     <path stroke="null" d="m360.78213,-206.63546c-0.9,-1.9 -2.2,-3.6 -3.9,-4.9c-0.3,-0.2 -0.6,-0.1 -0.8,0.1c-0.2,0.3 -0.1,0.6 0.1,0.8c1.5,1.1 2.8,2.7 3.5,4.4c0.6,1.3 1,2.7 1.4,4.2c0.1,0.3 0.3,0.4 0.6,0.4c0,0 0.1,0 0.1,0c0.3,-0.1 0.5,-0.4 0.4,-0.7c-0.3,-1.4 -0.8,-3 -1.4,-4.3z"/>
     <path stroke="null" d="m339.88213,-194.73546c0,-0.1 0,-0.2 0,-0.4c0,-0.6 -0.1,-1.6 -0.4,-2.1c-0.6,-1.4 -1,-2.9 -1,-4.5c0,-3.4 1.6,-6.6 4.2,-8.7c0.3,-0.2 0.3,-0.6 0.1,-0.8c-0.2,-0.3 -0.6,-0.3 -0.8,-0.1c-2.9,2.3 -4.7,5.9 -4.7,9.6c0,1.7 0.4,3.4 1,4.9c0.1,0.3 0.3,1.2 0.3,1.7c0,0.1 0,0.1 0,0.2c-0.1,0.3 0.2,0.6 0.5,0.7c0,0 0.1,0 0.1,0c0.4,0 0.6,-0.2 0.7,-0.5z"/>
    </g>
   </g>
  </g>
 </g>
</svg>