
        <svg xmlns="http://www.w3.org/2000/svg" xmlns:xlink="http://www.w3.org/1999/xlink" version="1.1" width="3214.285714285714" 
        height="1865.634389323921" viewBox="0 0 3214.285714285714 1865.634389323921">
			
			<g transform="scale(10.714285714285714) translate(10, 10)">
				<defs id="SvgjsDefs1027"></defs><g id="SvgjsG1028" featureKey="mugSzh-0" transform="matrix(1.640250513661404,0,0,1.640250513661404,66.66533946463458,-32.80501027322808)" fill="#39e991"><g xmlns="http://www.w3.org/2000/svg"><path d="M80.6,46.4c1.3-3.9,0.6-9.3-2.8-12.5c-2.3-2.2-5.5-3.5-8.8-3.5c-1.9,0-3.8,0.5-5.5,1.3C59.9,25,51.3,20,42.5,20   c-2.3,0-4.5,0.3-6.5,1c-9.5,3-18.4,11.7-18.1,23.1c-1-0.2-2.1-0.3-3.2-0.3c-7.2,0-13,4.9-13.8,11.7c-0.4,3.3,0.6,6.3,2.8,8.7   c3.3,3.6,9.2,5.8,16,5.8h57.1c6.7,0,12-4.6,12.4-10.8C89.5,53,85.2,48,80.6,46.4z M85.9,59c-0.3,4.4-4.2,7.8-9.2,7.8H19.7   c-5.9,0-11-1.8-13.6-4.7c-1.6-1.7-2.2-3.8-2-6.2c0.6-5.1,5-8.9,10.6-8.9c1.5,0,3,0.3,4.4,0.8l2.5,1L21.3,46   c-1.5-10.7,6.7-19.2,15.7-22c1.8-0.6,3.7-0.8,5.6-0.8c8.1,0,16.4,5,18.9,11.4l0.8,2l1.7-1.2c1.6-1.1,3.3-1.7,5.2-1.7   c2.4,0,4.9,1,6.6,2.6c2.8,2.7,3,7.8,1.4,10.5l-1.3,2.2l2.5,0.3C82.1,49.6,86.2,53.9,85.9,59z"></path><path d="M37.9,49.6c-0.2-0.5-0.4-0.9-0.5-1.4c-0.1-0.3-0.4-0.5-0.7-0.4c-0.3,0.1-0.5,0.4-0.4,0.7c0.1,0.5,0.3,1.1,0.6,1.6   c0.3,0.7,0.6,2.5,0.4,3.2c-0.1,0.6-0.4,1.3-1.6,2.8c-0.2,0.2-0.2,0.6,0.1,0.8c0.1,0.1,0.2,0.1,0.4,0.1c0.2,0,0.3-0.1,0.5-0.2   c1.2-1.5,1.6-2.4,1.8-3.3C38.6,52.5,38.3,50.5,37.9,49.6z"></path><path d="M36,46.1c0,0.4,0,0.7,0.1,1.1c0,0.3,0.3,0.5,0.6,0.5c0,0,0,0,0.1,0c0.3,0,0.6-0.3,0.5-0.7c0-0.3-0.1-0.6-0.1-1   c0-2.3,1-4.6,2.6-6.2c0.2-0.2,0.2-0.6,0-0.8c-0.2-0.2-0.6-0.2-0.8,0C37,40.9,36,43.4,36,46.1z"></path><path d="M52.4,40.3c0.6,0.7,1.1,1.4,1.4,2.2c0.7,1.5,1.2,3.3,1.6,5.2c0.1,0.3,0.3,0.5,0.6,0.5c0,0,0.1,0,0.1,0   c0.3-0.1,0.5-0.4,0.5-0.7c-0.5-2.5-1.2-4.4-1.7-5.5c-0.4-0.9-0.9-1.8-1.6-2.5c-0.2-0.2-0.6-0.3-0.8-0.1   C52.2,39.7,52.2,40.1,52.4,40.3z"></path><path d="M41.8,37c-0.7,0.3-1.3,0.7-1.9,1.1c-0.3,0.2-0.3,0.6-0.1,0.8c0.2,0.3,0.6,0.3,0.8,0.1c0.5-0.4,1.1-0.7,1.7-1   c3.1-1.4,6.7-0.8,9.3,1.4c0.1,0.1,0.2,0.1,0.4,0.1c0.2,0,0.3-0.1,0.4-0.2c0.2-0.2,0.2-0.6-0.1-0.8C49.5,36.1,45.3,35.5,41.8,37z"></path><path d="M56.1,48.3c-0.3,0-0.5,0.3-0.5,0.7c0.4,3,0.3,5.9-0.3,8.5c-0.1,0.3,0.1,0.6,0.4,0.7c0,0,0.1,0,0.1,0c0.3,0,0.5-0.2,0.6-0.5   c0.6-2.7,0.7-5.8,0.3-8.9C56.7,48.5,56.4,48.3,56.1,48.3z"></path><path d="M52,48.5c-0.1-0.3-0.4-0.5-0.7-0.5c-0.3,0.1-0.5,0.4-0.5,0.7c0.2,1.3,0.4,2.6,0.4,3.9c0,1.3-0.1,2.6-0.4,3.8   c-0.4,1.7-1,3.3-1.9,4.9c-0.2,0.3-0.1,0.6,0.2,0.8c0.1,0.1,0.2,0.1,0.3,0.1c0.2,0,0.4-0.1,0.5-0.3c0.9-1.6,1.6-3.4,2-5.2   c0.3-1.3,0.4-2.6,0.4-4C52.4,51.3,52.3,49.9,52,48.5z"></path><path d="M43.1,52.6c0-1.7-0.4-3.6-0.9-4.9c-0.2-0.5-0.3-1.1-0.3-1.6c0-0.6,0.1-1.3,0.4-1.8c0.1-0.3,0-0.6-0.3-0.8   c-0.3-0.1-0.6,0-0.8,0.3c-0.4,0.7-0.5,1.5-0.5,2.3c0,0.7,0.2,1.4,0.5,2.1c0.5,1.2,0.8,2.9,0.8,4.4c0,0.6-0.1,1.2-0.2,1.7   c-0.4,1.6-1.1,3.1-3.3,5.5c-0.2,0.2-0.2,0.6,0,0.8c0.1,0.1,0.3,0.2,0.4,0.2c0.2,0,0.3-0.1,0.4-0.2c2.4-2.6,3.1-4.3,3.5-6.1   C43,54,43.1,53.4,43.1,52.6z"></path><path d="M51.1,47.5c0,0,0.1,0,0.1,0c0.3-0.1,0.5-0.4,0.4-0.7c-0.3-1-0.6-2-1-2.8c-0.8-1.9-2.7-3.1-4.8-3.1c-0.7,0-1.4,0.2-2.1,0.5   c-0.5,0.2-1,0.5-1.4,0.9c-0.2,0.2-0.3,0.6,0,0.8c0.2,0.2,0.6,0.3,0.8,0c0.3-0.3,0.7-0.5,1.1-0.7c0.5-0.2,1.1-0.4,1.6-0.4   c1.6,0,3.1,0.9,3.7,2.4c0.3,0.8,0.7,1.7,0.9,2.7C50.6,47.3,50.8,47.5,51.1,47.5z"></path><path d="M47.7,52.6c0-2.3-0.5-4.9-1.3-6.8c-0.1-0.3-0.5-0.4-0.8-0.3c-0.3,0.1-0.4,0.5-0.3,0.8c0.8,1.7,1.2,4.1,1.2,6.3   c0,1-0.1,1.9-0.3,2.8c-0.5,2.2-1.4,4.1-3.1,6.1c-0.2,0.3-0.2,0.6,0.1,0.8c0.1,0.1,0.2,0.1,0.4,0.1c0.2,0,0.3-0.1,0.5-0.2   c1.7-2.2,2.7-4.2,3.3-6.6C47.6,54.7,47.7,53.7,47.7,52.6z"></path><path d="M51.9,41.5c-1.4-1.9-3.7-3-6-3c-1.1,0-2.1,0.2-3.1,0.7c-0.8,0.4-1.5,0.8-2.1,1.4c-0.2,0.2-0.2,0.6,0,0.8   c0.2,0.2,0.6,0.2,0.8,0c0.5-0.5,1.1-0.9,1.8-1.2c0.8-0.4,1.7-0.6,2.6-0.6c2,0,3.9,0.9,5.1,2.5c0.1,0.2,0.3,0.2,0.5,0.2   c0.1,0,0.3,0,0.4-0.1C52,42.1,52.1,41.7,51.9,41.5z"></path><path d="M52,42.8c-0.3,0.1-0.4,0.5-0.3,0.8c1.1,2.6,1.8,6,1.8,9.1c0,1.5-0.2,3-0.5,4.3c-0.3,1.1-0.6,2.2-1,3.3   c-0.1,0.3,0,0.6,0.3,0.8c0.1,0,0.1,0,0.2,0c0.2,0,0.5-0.1,0.5-0.4c0.5-1.1,0.8-2.3,1.1-3.4c0.3-1.4,0.5-3,0.5-4.6   c0-3.2-0.7-6.8-1.9-9.5C52.7,42.8,52.3,42.7,52,42.8z"></path><path d="M40.8,52.6c0-1.4-0.3-3-0.7-4c-0.4-0.8-0.6-1.7-0.6-2.6c0-1.2,0.3-2.4,1-3.4c0.2-0.3,0.1-0.6-0.2-0.8   c-0.3-0.2-0.6-0.1-0.8,0.2c-0.8,1.2-1.2,2.6-1.2,4c0,1.1,0.2,2.1,0.7,3.1c0.4,0.9,0.6,2.3,0.6,3.5c0,0.5,0,0.9-0.1,1.2   c-0.3,1.2-0.8,2.4-2.7,4.4c-0.2,0.2-0.2,0.6,0,0.8c0.1,0.1,0.3,0.2,0.4,0.2c0.2,0,0.3-0.1,0.4-0.2c2-2.2,2.6-3.6,2.9-5   C40.7,53.7,40.8,53.2,40.8,52.6z"></path><path d="M43.3,58.3c-0.3-0.2-0.6-0.1-0.8,0.2c-0.5,0.8-1.1,1.6-1.9,2.5c-0.2,0.2-0.2,0.6,0.1,0.8c0.1,0.1,0.3,0.1,0.4,0.1   c0.2,0,0.3-0.1,0.4-0.2c0.8-0.9,1.5-1.8,2-2.6C43.7,58.9,43.6,58.5,43.3,58.3z"></path><path d="M43.2,57.2c-0.1,0.3,0,0.6,0.3,0.8c0.1,0,0.2,0.1,0.2,0.1c0.2,0,0.4-0.1,0.5-0.3c0.4-0.8,0.7-1.7,0.9-2.6   c0.2-0.7,0.3-1.6,0.3-2.5c0-1.9-0.4-4.1-1.1-5.7c-0.1-0.3-0.5-0.4-0.8-0.3c-0.3,0.1-0.4,0.5-0.3,0.8c0.6,1.4,1,3.5,1,5.3   c0,0.8-0.1,1.6-0.2,2.2C43.8,55.7,43.6,56.5,43.2,57.2z"></path><path d="M48.2,57.3c-0.1,0.3,0.1,0.6,0.4,0.7c0.1,0,0.1,0,0.2,0c0.2,0,0.5-0.2,0.6-0.4c0.2-0.5,0.3-1,0.4-1.4   c0.3-1.1,0.4-2.3,0.4-3.6c0-2.4-0.5-4.5-0.8-5.7c-0.1-0.3-0.4-0.5-0.7-0.4c-0.3,0.1-0.5,0.4-0.4,0.7c0.5,1.7,0.8,3.6,0.8,5.4   c0,1.2-0.1,2.3-0.4,3.3C48.4,56.4,48.3,56.8,48.2,57.3z"></path><path d="M47.5,45.4c0.1,0.1,0.1,0.3,0.2,0.4c0.1,0.3,0.5,0.4,0.8,0.3c0.3-0.1,0.4-0.5,0.3-0.8c-0.1-0.1-0.1-0.3-0.2-0.4   c-0.6-1.4-2.4-2.1-3.8-1.5c-0.9,0.4-1.5,1.2-1.7,2.1c-0.1,0.3,0.1,0.6,0.5,0.7c0,0,0.1,0,0.1,0c0.3,0,0.5-0.2,0.6-0.5   c0.1-0.6,0.5-1,1-1.3C46,44.1,47.1,44.5,47.5,45.4z"></path><path d="M48.4,58.4c-0.3-0.1-0.6,0-0.8,0.3c-0.4,0.9-0.9,1.8-1.5,2.7c-0.2,0.3-0.1,0.6,0.2,0.8c0.1,0.1,0.2,0.1,0.3,0.1   c0.2,0,0.4-0.1,0.5-0.3c0.6-1,1.2-1.9,1.6-2.9C48.9,58.9,48.7,58.5,48.4,58.4z"></path><path d="M40.1,36.5c0.1,0,0.2,0,0.3-0.1c0.3-0.2,0.7-0.4,1-0.5c3.1-1.4,6.7-1.2,9.6,0.3c0.3,0.2,0.6,0,0.8-0.2   c0.2-0.3,0-0.6-0.2-0.8c-3.3-1.7-7.3-1.9-10.7-0.4c-0.4,0.2-0.8,0.4-1.1,0.6c-0.3,0.2-0.4,0.5-0.2,0.8   C39.7,36.4,39.9,36.5,40.1,36.5z"></path><path d="M57,41.1c-0.9-1.9-2.2-3.6-3.9-4.9c-0.3-0.2-0.6-0.1-0.8,0.1c-0.2,0.3-0.1,0.6,0.1,0.8c1.5,1.1,2.8,2.7,3.5,4.4   c0.6,1.3,1,2.7,1.4,4.2c0.1,0.3,0.3,0.4,0.6,0.4c0,0,0.1,0,0.1,0c0.3-0.1,0.5-0.4,0.4-0.7C58.1,44,57.6,42.4,57,41.1z"></path><path d="M36.1,53c0-0.1,0-0.2,0-0.4c0-0.6-0.1-1.6-0.4-2.1c-0.6-1.4-1-2.9-1-4.5c0-3.4,1.6-6.6,4.2-8.7c0.3-0.2,0.3-0.6,0.1-0.8   c-0.2-0.3-0.6-0.3-0.8-0.1c-2.9,2.3-4.7,5.9-4.7,9.6c0,1.7,0.4,3.4,1,4.9c0.1,0.3,0.3,1.2,0.3,1.7c0,0.1,0,0.1,0,0.2   c-0.1,0.3,0.2,0.6,0.5,0.7c0,0,0.1,0,0.1,0C35.8,53.5,36,53.3,36.1,53z"></path></g></g><g id="SvgjsG1029" featureKey="PPkF4s-0" transform="matrix(1.895735028020081,0,0,1.895735028020081,-1.7061635139232607,92.6729835175081)" fill="#ffffff"><path d="M4.86 16.87 q1.42 0.57 2.6 0.57 q1.24 0 1.97 -0.48 t0.73 -1.14 q0 -0.54 -0.43 -0.88 t-1.09 -0.51 t-1.74 -0.37 q-1.44 -0.24 -2.64 -0.62 t-2.18 -1.32 t-0.98 -2.54 q0 -2.36 1.73 -3.39 t4.07 -1.03 q1.8 0 3.13 0.49 t2.65 1.47 l-1.76 2.4 q-0.98 -0.7 -2.04 -1.1 t-2.1 -0.4 q-0.92 0 -1.72 0.33 t-0.8 1.11 q0 0.48 0.41 0.77 t0.9 0.42 t1.59 0.37 l0.72 0.14 q1.66 0.32 2.75 0.71 t1.89 1.31 t0.8 2.56 q0 2.22 -1.57 3.38 t-4.25 1.16 q-3.92 0 -6.6 -2.28 l1.68 -2.42 q0.86 0.72 2.28 1.29 z M31.93 10.04 q1.13 1.24 1.13 3.46 l0 6.5 l-3.02 0 l0 -6.5 q0 -1.18 -0.59 -1.7 t-1.55 -0.52 q-0.8 0 -1.44 0.6 t-0.66 2 l0 6.12 l-3.02 0 l0 -6.5 q0 -1.18 -0.59 -1.7 t-1.53 -0.52 q-0.86 0 -1.49 0.64 t-0.63 2.26 l-0.02 5.82 l-2.98 0 l0 -11 l2.98 0 l0 1 q0.58 -0.52 1.4 -0.86 t1.5 -0.34 q2.32 0 3.54 1.5 q0.62 -0.7 1.54 -1.1 t2 -0.4 q2.3 0 3.43 1.24 z M44.5 18.9 q-0.38 0.52 -1.31 0.93 t-2.03 0.41 q-1.7 0 -2.95 -0.76 t-1.91 -2.07 t-0.66 -2.91 t0.66 -2.91 t1.91 -2.07 t2.95 -0.76 q1.14 0 2.01 0.39 t1.33 0.99 l0 -1.14 l2.96 0 l0 11 l-2.96 0 l0 -1.1 z M43.8 12.25 q-0.82 -0.87 -2.2 -0.87 q-1.4 0 -2.21 0.87 t-0.81 2.25 q0 1.34 0.83 2.22 t2.19 0.88 q1.4 0 2.21 -0.83 t0.81 -2.27 q0 -1.38 -0.82 -2.25 z M55.66 11.87 q-0.86 0.21 -1.58 0.99 t-0.72 2.28 l0 4.86 l-2.98 0 l0 -11 l2.98 0 l0 1.46 q0.74 -0.98 1.81 -1.33 t1.95 -0.33 l0 2.92 q-0.6 -0.06 -1.46 0.15 z M62.599999999999994 16.08 q0 0.7 0.24 1.17 t1.12 0.47 q0.4 0 0.76 -0.04 l0 2.52 q-0.72 0.08 -1.34 0.08 q-1.28 0 -2.07 -0.21 t-1.23 -0.81 t-0.44 -1.72 l0 -6.1 l-1.34 0 l0 -2.62 l1.34 0 l0 -2.94 l2.96 0 l0 2.94 l2.2 0 l0 2.62 l-2.2 0 l0 4.64 z M79.67999999999999 4.92 l8.02 15.08 l-3.46 0 l-1.16 -2.24 l-6.82 0 l-1.12 2.24 l-3.48 0 z M81.56 15.059999999999999 l-1.88 -3.82 l-1.86 3.82 l3.74 0 z M90.96 19.51 q-1.38 -0.77 -2.19 -2.09 t-0.81 -2.88 t0.81 -2.87 t2.18 -2.08 t2.99 -0.77 q1.74 0 3.15 0.83 t2.25 2.37 l-2.7 1.06 q-0.48 -0.82 -1.18 -1.23 t-1.52 -0.41 q-1.3 0 -2.15 0.88 t-0.85 2.22 t0.86 2.22 t2.16 0.88 q1.8 0 2.78 -1.6 l2.54 1 q-1.58 3.24 -5.32 3.24 q-1.62 0 -3 -0.77 z M103.96 19.51 q-1.38 -0.77 -2.19 -2.09 t-0.81 -2.88 t0.81 -2.87 t2.18 -2.08 t2.99 -0.77 q1.74 0 3.15 0.83 t2.25 2.37 l-2.7 1.06 q-0.48 -0.82 -1.18 -1.23 t-1.52 -0.41 q-1.3 0 -2.15 0.88 t-0.85 2.22 t0.86 2.22 t2.16 0.88 q1.8 0 2.78 -1.6 l2.54 1 q-1.58 3.24 -5.32 3.24 q-1.62 0 -3 -0.77 z M117.28999999999999 19.74 q-1.37 -0.54 -2.35 -1.83 t-0.98 -3.37 t0.99 -3.36 t2.37 -1.82 t2.62 -0.54 q1.44 0 2.74 0.64 t2.13 1.88 t0.87 2.94 q0 0.52 -0.02 0.9 t-0.04 0.48 l-8.68 0 q0.24 1.16 1.2 1.58 t1.8 0.42 q1.08 0 1.72 -0.39 t1.1 -0.89 l2.32 1.34 q-1.88 2.56 -5.14 2.56 q-1.28 0 -2.65 -0.54 z M117.89999999999999 12.05 q-0.78 0.61 -0.88 1.49 l5.5 0 q-0.06 -0.52 -0.4 -1 t-0.91 -0.79 t-1.29 -0.31 q-1.24 0 -2.02 0.61 z M127.48 18.54 l1.56 -2.08 q0.72 0.5 1.68 0.84 t1.88 0.34 q0.68 0 1.13 -0.28 t0.45 -0.7 t-0.51 -0.59 t-0.99 -0.24 t-0.62 -0.09 q-1.2 -0.2 -2.07 -0.48 t-1.58 -1 t-0.71 -1.98 q0 -2.08 1.51 -2.78 t3.03 -0.7 q1.3 0 2.4 0.38 t2.18 1.2 l-1.56 2.04 q-0.78 -0.46 -1.54 -0.74 t-1.58 -0.28 q-0.5 0 -0.97 0.22 t-0.47 0.6 q0 0.48 0.65 0.68 t1.43 0.3 q1.4 0.24 2.24 0.5 t1.49 0.97 t0.65 2.01 q0 1.72 -1.18 2.65 t-3.34 0.93 q-3 0 -5.16 -1.72 z M138.92 18.54 l1.56 -2.08 q0.72 0.5 1.68 0.84 t1.88 0.34 q0.68 0 1.13 -0.28 t0.45 -0.7 t-0.51 -0.59 t-0.99 -0.24 t-0.62 -0.09 q-1.2 -0.2 -2.07 -0.48 t-1.58 -1 t-0.71 -1.98 q0 -2.08 1.51 -2.78 t3.03 -0.7 q1.3 0 2.4 0.38 t2.18 1.2 l-1.56 2.04 q-0.78 -0.46 -1.54 -0.74 t-1.58 -0.28 q-0.5 0 -0.97 0.22 t-0.47 0.6 q0 0.48 0.65 0.68 t1.43 0.3 q1.4 0.24 2.24 0.5 t1.49 0.97 t0.65 2.01 q0 1.72 -1.18 2.65 t-3.34 0.93 q-3 0 -5.16 -1.72 z"></path></g><g id="SvgjsG1030" featureKey="uwAHB0-0" transform="matrix(0.8821034661070138,0,0,0.8821034661070138,35.06497037640093,136.16624922856727)" fill="#39e991"><path d="M5.98 5.48 q2.46 0 3.86 1.78 l-1.14 0.82 q-1.04 -1.4 -2.76 -1.4 q-1.4 0 -2.27 0.72 t-0.91 1.96 q0 1.08 0.66 1.75 t2.3 1.13 q2.16 0.64 2.88 1.13 t1.09 1.21 t0.37 1.8 q0 1.72 -1.23 2.83 t-3.17 1.15 q-3.06 0 -4.6 -2.14 l1.26 -0.84 q1.06 1.76 3.24 1.78 q1.42 0 2.3 -0.79 t0.88 -1.99 q0 -0.7 -0.25 -1.15 t-0.76 -0.78 t-1.3 -0.6 t-1.85 -0.63 q-1.6 -0.52 -2.37 -1.46 t-0.77 -2.4 q0 -1.72 1.29 -2.8 t3.25 -1.08 z M24.604 5.84 l0 12.96 l6.6 0 l0 1.2 l-7.92 0 l0 -14.16 l1.32 0 z M43.908 12.92 q0 2.7 1.66 4.45 t4.34 1.79 q2.7 0 4.34 -1.77 t1.66 -4.47 q0 -2.74 -1.64 -4.47 t-4.38 -1.77 q-2.68 0 -4.32 1.76 t-1.66 4.48 z M49.908 5.48 q2.16 0 3.82 0.95 t2.57 2.66 t0.93 3.83 q0 3.26 -2.06 5.33 t-5.26 2.11 q-3.22 0 -5.24 -2.09 t-2.08 -5.35 q0.02 -3.26 2.04 -5.32 t5.28 -2.12 z M76.812 5.48 q3.2 -0.02 5.1 1.96 l-0.96 1 q-0.6 -0.74 -1.77 -1.25 t-2.37 -0.51 q-2.66 0 -4.32 1.76 t-1.68 4.48 q0 2.7 1.64 4.44 t4.38 1.8 q2.6 0 3.94 -0.84 l0 -4.76 l-3.4 0 l0 -1.2 l4.72 0 l0 6.72 q-2.3 1.28 -5.28 1.28 q-3.2 0 -5.23 -2.09 t-2.09 -5.35 q0.02 -3.28 2.06 -5.34 t5.26 -2.1 z M97.856 15.04 l6.5 0 l-3.2 -7.76 z M101.896 5.84 l5.96 14.16 l-1.48 0 l-1.54 -3.76 l-7.5 0 l-1.6 3.76 l-1.38 0 l6.18 -14.16 l1.36 0 z M121.82000000000001 5.84 l8.62 12.4 l0.04 0 l0 -12.4 l1.32 0 l0 14.16 l-1.7 0 l-8.62 -12.4 l-0.04 0 l0 12.4 l-1.32 0 l0 -14.16 l1.7 0 z M170.62800000000001 5.84 l0 1.2 l-4.84 0 l0 12.96 l-1.32 0 l0 -12.96 l-4.84 0 l0 -1.2 l11 0 z M191.692 5.84 l0 1.2 l-7.34 0 l0 5.04 l6.88 0 l0 1.2 l-6.88 0 l0 5.52 l7.66 0 l0 1.2 l-8.98 0 l0 -14.16 l8.66 0 z M205.23600000000002 5.84 l4.08 5.76 l4.02 -5.76 l1.58 0 l-4.8 6.72 l5.26 7.44 l-1.64 0 l-4.48 -6.4 l-4.48 6.4 l-1.58 0 l5.32 -7.44 l-4.84 -6.72 l1.56 0 z M236.86 5.84 l0 1.2 l-4.84 0 l0 12.96 l-1.32 0 l0 -12.96 l-4.84 0 l0 -1.2 l11 0 z"></path></g>
			</g>
		</svg>
	