<?xml version="1.0" standalone="no"?>
<!DOCTYPE svg PUBLIC "-//W3C//DTD SVG 20010904//EN"
 "http://www.w3.org/TR/2001/REC-SVG-20010904/DTD/svg10.dtd">
<svg version="1.0" xmlns="http://www.w3.org/2000/svg"
 width="635.000000pt" height="368.000000pt" viewBox="0 0 635.000000 368.000000"
 preserveAspectRatio="xMidYMid meet">

<g transform="translate(0.000000,368.000000) scale(0.100000,-0.100000)"
fill="#000000" stroke="none">
<path d="M3285 2725 c115 -24 221 -83 301 -167 79 -84 119 -152 148 -252 19
-67 20 -108 25 -683 l6 -611 30 -44 c60 -85 133 -111 296 -106 l94 3 -71 22
c-86 27 -116 50 -140 105 -18 40 -19 86 -24 618 -6 630 -5 610 -70 740 -115
228 -325 367 -582 384 l-83 6 70 -15z"/>
</g>
</svg>
